HIERARCHY
ROOT Pelvis
{
	OFFSET 0.000000 0.000000 0.000000
	CHANNELS 6 Xposition Yposition Zposition Xrotation Yrotation Zrotation
	JOINT LeftUpLeg_virtual
	{
		OFFSET 0.000000 0.000000 0.000000
		CHANNELS 3 Xrotation Yrotation Zrotation
		JOINT LeftUpLeg
		{
			OFFSET 18.735201 -5.666702 -4.541200
			CHANNELS 3 Xrotation Yrotation Zrotation
			JOINT LeftLeg
			{
				OFFSET -0.021200 -31.938179 0.493100
				CHANNELS 3 Xrotation Yrotation Zrotation
				JOINT LeftFoot
				{
					OFFSET 0.021200 -31.938179 -4.336299
					CHANNELS 3 Xrotation Yrotation Zrotation
					JOINT LeftToeBase
					{
						OFFSET 0.943001 -26.722000 15.023500
						CHANNELS 3 Xrotation Yrotation Zrotation
						End Site
						{
							OFFSET 0 0 0
						}
					}
				}
			}
		}
	}
	JOINT RightUpLeg_virtual
	{
		OFFSET 0.000000 0.000000 0.000000
		CHANNELS 3 Xrotation Yrotation Zrotation
		JOINT RightUpLeg
		{
			OFFSET -18.735201 -5.666702 -4.541200
			CHANNELS 3 Xrotation Yrotation Zrotation
			JOINT RightLeg
			{
				OFFSET 0.018946 -31.938133 0.493100
				CHANNELS 3 Xrotation Yrotation Zrotation
				JOINT RightFoot
				{
					OFFSET -0.018946 -31.938126 -4.336299
					CHANNELS 3 Xrotation Yrotation Zrotation
					JOINT RightToeBase
					{
						OFFSET -0.943001 -26.722004 15.023500
						CHANNELS 3 Xrotation Yrotation Zrotation
						End Site
						{
							OFFSET 0 0 0
						}
					}
				}
			}
		}
	}
	JOINT Hips_virtual
	{
		OFFSET 0.000000 0.000000 0.000000
		CHANNELS 3 Xrotation Yrotation Zrotation
		JOINT Hips
		{
			OFFSET -0.000000 -0.000000 -0.000000
			CHANNELS 3 Xrotation Yrotation Zrotation
			JOINT Spine
			{
				OFFSET 0.000000 10.199997 -0.299500
				CHANNELS 3 Xrotation Yrotation Zrotation
				JOINT Spine1
				{
					OFFSET 0.000000 11.900002 -1.516600
					CHANNELS 3 Xrotation Yrotation Zrotation
					JOINT Spine2
					{
						OFFSET 0.000000 13.600006 -2.842500
						CHANNELS 3 Xrotation Yrotation Zrotation
						JOINT Neck_virtual
						{
							OFFSET 0.000000 0.000000 0.000000
							CHANNELS 3 Xrotation Yrotation Zrotation
							JOINT Neck
							{
								OFFSET 0.000000 9.624100 -2.890100
								CHANNELS 3 Xrotation Yrotation Zrotation
								JOINT Head
								{
									OFFSET 0.000000 14.068802 -1.351900
									CHANNELS 3 Xrotation Yrotation Zrotation
									End Site
									{
										OFFSET 0 0 0
									}
								}
							}
						}
						JOINT LeftShoulder_virtual
						{
							OFFSET 0.000000 0.000000 0.000000
							CHANNELS 3 Xrotation Yrotation Zrotation
							JOINT LeftShoulder
							{
								OFFSET 15.263000 10.923401 -0.547700
								CHANNELS 3 Xrotation Yrotation Zrotation
								JOINT LeftArm
								{
									OFFSET 25.438599 -2.830597 -13.032500
									CHANNELS 3 Xrotation Yrotation Zrotation
									JOINT LeftForeArm
									{
										OFFSET 29.960503 0.000000 0.000000
										CHANNELS 3 Xrotation Yrotation Zrotation
										JOINT LeftHand
										{
											OFFSET 27.849251 0.000000 0.000000
											CHANNELS 3 Xrotation Yrotation Zrotation
											End Site
											{
												OFFSET 0 0 0
											}
										}
									}
								}
							}
						}
						JOINT RightShoulder_virtual
						{
							OFFSET 0.000000 0.000000 0.000000
							CHANNELS 3 Xrotation Yrotation Zrotation
							JOINT RightShoulder
							{
								OFFSET -15.263000 10.923401 -0.547700
								CHANNELS 3 Xrotation Yrotation Zrotation
								JOINT RightArm
								{
									OFFSET -25.438599 -2.830597 -13.032500
									CHANNELS 3 Xrotation Yrotation Zrotation
									JOINT RightForeArm
									{
										OFFSET -29.960503 0.000000 0.000000
										CHANNELS 3 Xrotation Yrotation Zrotation
										JOINT RightHand
										{
											OFFSET -27.849251 0.000000 0.000000
											CHANNELS 3 Xrotation Yrotation Zrotation
											End Site
											{
												OFFSET 0 0 0
											}
										}
									}
								}
							}
						}
					}
				}
			}
		}
	}
}
MOTION
Frames: 12
Frame Time: 0.03333333
3.624023 4.400520 2.867241 0.000000 0.000000 0.000000 87.459664 0.113248 1.102496 -21.882487 4.224514 12.157277 21.385727 10.569449 1.598141 50.908620 26.842894 -18.647058 0.000000 0.000000 0.000000 87.459664 0.113248 1.102496 -19.188315 -5.475861 -15.153495 20.733236 -10.786254 -0.244661 50.292790 -25.946265 28.195970 0.000000 0.000000 0.000000 87.459664 0.113248 1.102496 0.000000 0.000000 0.000000 3.813893 0.558875 -1.165458 0.793258 0.138199 -0.141419 0.000000 0.000000 0.000000 0.792535 0.141294 -0.141442 -2.227628 -5.475253 2.716027 0.000000 0.000000 0.000000 0.792535 0.141294 -0.141442 3.766324 -21.296513 -1.256999 15.600410 -18.626728 -61.954453 -0.000007 -18.654973 -0.000002 0.000000 0.000000 0.000000 0.792535 0.141294 -0.141442 0.640297 15.700663 9.197082 13.898626 -3.320481 53.523487 0.000000 31.875308 -0.000001 0.000000 0.000000 0.000000 
3.623912 4.402184 2.868706 0.000000 0.000000 0.000000 87.450156 0.116952 1.101980 -21.876391 4.229026 12.162124 21.399147 10.568698 1.596179 50.890643 26.852274 -18.670459 0.000000 0.000000 0.000000 87.450156 0.116952 1.101980 -19.186509 -5.477941 -15.153287 20.734521 -10.779577 -0.239733 50.299917 -25.948343 28.176429 0.000000 0.000000 0.000000 87.450156 0.116952 1.101980 0.000000 0.000000 0.000000 3.822392 0.556014 -1.163919 0.795024 0.137604 -0.141028 0.000000 0.000000 0.000000 0.794333 0.140705 -0.141052 -2.226609 -5.475256 2.714529 0.000000 0.000000 0.000000 0.794333 0.140705 -0.141052 3.774321 -21.342084 -1.254778 15.591976 -18.591049 -61.965266 -0.000002 -18.641599 0.000002 0.000000 0.000000 0.000000 0.794333 0.140705 -0.141052 0.641010 15.689949 9.189850 13.871901 -3.307261 53.531550 0.000001 31.852099 -0.000003 0.000000 0.000000 0.000000 
3.623276 4.405106 2.867989 0.000000 0.000000 0.000000 87.457861 0.121602 1.105878 -21.880948 4.224390 12.153631 21.403258 10.566887 1.607852 50.881310 26.863476 -18.720136 0.000000 0.000000 0.000000 87.457861 0.121602 1.105878 -19.190327 -5.480123 -15.161828 20.733982 -10.785787 -0.238249 50.301509 -25.944424 28.194505 0.000000 0.000000 0.000000 87.457861 0.121602 1.105878 0.000000 0.000000 0.000000 3.812880 0.552210 -1.164460 0.792723 0.136766 -0.140974 0.000000 0.000000 0.000000 0.792048 0.139859 -0.141001 -2.222886 -5.475242 2.712838 0.000000 0.000000 0.000000 0.792048 0.139859 -0.141001 3.780978 -21.376641 -1.256570 15.556881 -18.576976 -61.979698 0.000004 -18.573173 -0.000007 0.000000 0.000000 0.000000 0.792048 0.139859 -0.141001 0.640461 15.698715 9.195479 13.865610 -3.329056 53.534907 0.000005 31.844015 -0.000003 0.000000 0.000000 0.000000 
3.622147 4.408554 2.865631 0.000000 0.000000 0.000000 87.469213 0.123996 1.110544 -21.891318 4.216239 12.139973 21.399949 10.565492 1.622542 50.886689 26.869954 -18.746036 0.000000 0.000000 0.000000 87.469213 0.123996 1.110544 -19.183119 -5.483113 -15.170784 20.723888 -10.808023 -0.244019 50.298783 -25.935856 28.241070 0.000000 0.000000 0.000000 87.469213 0.123996 1.110544 0.000000 0.000000 0.000000 3.801247 0.549556 -1.164565 0.789975 0.136171 -0.140839 0.000000 0.000000 0.000000 0.789274 0.139252 -0.140869 -2.221264 -5.475089 2.711371 0.000000 0.000000 0.000000 0.789274 0.139252 -0.140869 3.780674 -21.372241 -1.259638 15.494907 -18.603296 -61.991760 0.000015 -18.436603 -0.000003 0.000000 0.000000 0.000000 0.789274 0.139252 -0.140869 0.640992 15.712336 9.191115 13.846821 -3.359457 53.548823 0.000008 31.824474 -0.000008 0.000000 0.000000 0.000000 
3.621348 4.412201 2.862640 0.000000 0.000000 0.000000 87.471487 0.124242 1.112537 -21.899357 4.212284 12.132187 21.395574 10.565544 1.630106 50.901534 26.869838 -18.732064 0.000000 0.000000 0.000000 87.471487 0.124242 1.112537 -19.167275 -5.485143 -15.174515 20.716433 -10.830494 -0.252473 50.290871 -25.927885 28.286634 0.000000 0.000000 0.000000 87.471487 0.124242 1.112537 0.000000 0.000000 0.000000 3.798758 0.548752 -1.161656 0.789351 0.135991 -0.140070 0.000000 0.000000 0.000000 0.788648 0.139073 -0.140101 -2.221381 -5.474839 2.710076 0.000000 0.000000 0.000000 0.788648 0.139073 -0.140101 3.778152 -21.356434 -1.261999 15.442677 -18.624191 -61.994793 0.000003 -18.349249 0.000007 0.000000 0.000000 0.000000 0.788648 0.139073 -0.140101 0.641334 15.722648 9.188437 13.818473 -3.398198 53.553160 -0.000006 31.811459 0.000002 0.000000 0.000000 0.000000 
3.621477 4.415581 2.861092 0.000000 0.000000 0.000000 87.457424 0.123598 1.110685 -21.894788 4.216965 12.135936 21.396835 10.566689 1.627490 50.910454 26.868651 -18.701661 0.000000 0.000000 0.000000 87.457424 0.123598 1.110685 -19.149644 -5.486327 -15.171086 20.719575 -10.837935 -0.256978 50.280567 -25.925615 28.299487 0.000000 0.000000 0.000000 87.457424 0.123598 1.110685 0.000000 0.000000 0.000000 3.810565 0.549900 -1.155747 0.792108 0.136262 -0.138668 0.000000 0.000000 0.000000 0.791400 0.139363 -0.138699 -2.221124 -5.474498 2.708544 0.000000 0.000000 0.000000 0.791400 0.139363 -0.138699 3.782402 -21.377966 -1.263686 15.409013 -18.569293 -61.990298 0.000011 -18.317305 -0.000003 0.000000 0.000000 0.000000 0.791400 0.139363 -0.138699 0.640845 15.722986 9.193044 13.787240 -3.433429 53.542136 0.000008 31.810776 0.000003 0.000000 0.000000 0.000000 
3.622022 4.418510 2.861832 0.000000 0.000000 0.000000 87.434863 0.124048 1.107723 -21.878322 4.226083 12.145086 21.405827 10.567089 1.622657 50.901677 26.873256 -18.697446 0.000000 0.000000 0.000000 87.434863 0.124048 1.107723 -19.132185 -5.489070 -15.165890 20.724510 -10.834356 -0.255309 50.273628 -25.927451 28.285000 0.000000 0.000000 0.000000 87.434863 0.124048 1.107723 0.000000 0.000000 0.000000 3.828969 0.551611 -1.149817 0.796346 0.136676 -0.137240 0.000000 0.000000 0.000000 0.795641 0.139802 -0.137271 -2.218571 -5.474156 2.706732 0.000000 0.000000 0.000000 0.795641 0.139802 -0.137271 3.802396 -21.484643 -1.265551 15.394055 -18.473819 -62.000291 -0.000001 -18.315613 0.000002 0.000000 0.000000 0.000000 0.795641 0.139802 -0.137271 0.639801 15.714034 9.202240 13.755825 -3.457577 53.523463 0.000010 31.811592 0.000014 0.000000 0.000000 0.000000 
3.621480 4.421288 2.863533 0.000000 0.000000 0.000000 87.418778 0.129021 1.108808 -21.860881 4.228553 12.143408 21.423822 10.563962 1.633183 50.871273 26.894285 -18.768694 0.000000 0.000000 0.000000 87.418778 0.129021 1.108808 -19.106573 -5.499927 -15.169230 20.696009 -10.846389 -0.250074 50.298462 -25.925861 28.270585 0.000000 0.000000 0.000000 87.418778 0.129021 1.108808 0.000000 0.000000 0.000000 3.841555 0.548582 -1.145738 0.799042 0.136061 -0.136133 0.000000 0.000000 0.000000 0.798362 0.139198 -0.136164 -2.214244 -5.473630 2.704274 0.000000 0.000000 0.000000 0.798362 0.139198 -0.136164 3.811596 -21.535402 -1.264521 15.421239 -18.468565 -62.011547 -0.000007 -18.358053 0.000003 0.000000 0.000000 0.000000 0.798362 0.139198 -0.136164 0.641465 15.704420 9.186534 13.658458 -3.471960 53.530826 0.000004 31.731826 -0.000007 0.000000 0.000000 0.000000 
3.621419 4.424995 2.862152 0.000000 0.000000 0.000000 87.424202 0.130561 1.114358 -21.861503 4.223001 12.130375 21.418879 10.562446 1.645717 50.866980 26.893274 -18.790808 0.000000 0.000000 0.000000 87.424202 0.130561 1.114358 -19.093109 -5.503951 -15.176421 20.681362 -10.868951 -0.256945 50.295983 -25.918490 28.308267 0.000000 0.000000 0.000000 87.424202 0.130561 1.114358 0.000000 0.000000 0.000000 3.833938 0.550268 -1.144437 0.797285 0.136420 -0.135579 0.000000 0.000000 0.000000 0.796588 0.139557 -0.135615 -2.209425 -5.473396 2.702979 0.000000 0.000000 0.000000 0.796588 0.139557 -0.135615 3.808586 -21.523224 -1.260004 15.410514 -18.505305 -62.022790 -0.000007 -18.313798 0.000000 0.000000 0.000000 0.000000 0.796588 0.139557 -0.135615 0.641777 15.719335 9.184081 13.639673 -3.519257 53.527342 -0.000001 31.722243 0.000007 0.000000 0.000000 0.000000 
3.621212 4.428558 2.859062 0.000000 0.000000 0.000000 87.424372 0.132054 1.118232 -21.867143 4.220106 12.123390 21.417136 10.561929 1.650436 50.871915 26.884036 -18.776692 0.000000 0.000000 0.000000 87.424372 0.132054 1.118232 -19.065519 -5.507185 -15.182124 20.663423 -10.900801 -0.267745 50.293774 -25.907852 28.366257 0.000000 0.000000 0.000000 87.424372 0.132054 1.118232 0.000000 0.000000 0.000000 3.832260 0.552371 -1.140892 0.796844 0.136885 -0.134507 0.000000 0.000000 0.000000 0.796151 0.140032 -0.134548 -2.205436 -5.473066 2.700679 0.000000 0.000000 0.000000 0.796151 0.140032 -0.134548 3.805454 -21.509702 -1.256114 15.339985 -18.564316 -62.048553 0.000004 -18.170830 -0.000001 0.000000 0.000000 0.000000 0.796151 0.140032 -0.134548 0.642112 15.741542 9.182201 13.606898 -3.593066 53.527988 0.000007 31.722639 0.000006 0.000000 0.000000 0.000000 
3.621423 4.431709 2.857038 0.000000 0.000000 0.000000 87.411627 0.132573 1.117270 -21.865300 4.224600 12.128317 21.419851 10.562887 1.646433 50.879141 26.876994 -18.746617 0.000000 0.000000 0.000000 87.411627 0.132573 1.117270 -19.050169 -5.506341 -15.179230 20.666320 -10.909217 -0.273289 50.291362 -25.904415 28.382235 0.000000 0.000000 0.000000 87.411627 0.132573 1.117270 0.000000 0.000000 0.000000 3.843849 0.555360 -1.134027 0.799436 0.137561 -0.132770 0.000000 0.000000 0.000000 0.798724 0.140732 -0.132814 -2.204097 -5.472857 2.698094 0.000000 0.000000 0.000000 0.798724 0.140732 -0.132814 3.808965 -21.529499 -1.255326 15.270833 -18.563739 -62.066407 0.000017 -18.050108 0.000008 0.000000 0.000000 0.000000 0.798724 0.140732 -0.132814 0.641622 15.753510 9.186984 13.578812 -3.655362 53.512948 0.000002 31.738431 0.000006 0.000000 0.000000 0.000000 
3.621154 4.434814 2.856438 0.000000 0.000000 0.000000 87.392339 0.133528 1.113978 -21.855695 4.232311 12.138377 21.428052 10.563410 1.642387 50.879940 26.879610 -18.738240 0.000000 0.000000 0.000000 87.392339 0.133528 1.113978 -19.038360 -5.505635 -15.173024 20.674059 -10.903526 -0.272652 50.291117 -25.905038 28.373898 0.000000 0.000000 0.000000 87.392339 0.133528 1.113978 0.000000 0.000000 0.000000 3.862273 0.558233 -1.126945 0.803532 0.138236 -0.130953 0.000000 0.000000 0.000000 0.802845 0.141438 -0.130998 -2.204661 -5.472998 2.696659 0.000000 0.000000 0.000000 0.802845 0.141438 -0.130998 3.817241 -21.574198 -1.255501 15.237812 -18.537043 -62.071776 -0.000001 -18.005789 0.000014 0.000000 0.000000 0.000000 0.802845 0.141438 -0.130998 0.640094 15.747758 9.200883 13.554394 -3.702654 53.486002 0.000007 31.767107 -0.000008 0.000000 0.000000 0.000000 
